<?xml version="1.0" encoding="UTF-8" standalone="no"?>
<!-- Created with Inkscape (http://www.inkscape.org/) -->

<svg
   version="1.1"
   id="svg1"
   width="841.55212"
   height="387.41147"
   viewBox="0 0 841.55212 387.41147"
   xmlns="http://www.w3.org/2000/svg"
   xmlns:svg="http://www.w3.org/2000/svg">
  <defs
     id="defs1">
    <clipPath
       clipPathUnits="userSpaceOnUse"
       id="clipPath1">
      <path
         d="M 0,0 H 1137.3333 V 1069.3333 H 0 Z"
         id="path1" />
    </clipPath>
    <clipPath
       clipPathUnits="userSpaceOnUse"
       id="clipPath3">
      <path
         d="M 0,0 H 853 V 802 H 0 Z"
         transform="translate(-2.5000001e-6)"
         id="path3" />
    </clipPath>
    <clipPath
       clipPathUnits="userSpaceOnUse"
       id="clipPath5">
      <path
         d="M 0,0 H 853 V 802 H 0 Z"
         transform="translate(-2.5000001e-6)"
         id="path5" />
    </clipPath>
    <clipPath
       clipPathUnits="userSpaceOnUse"
       id="clipPath7">
      <path
         d="M 0,0 H 853 V 802 H 0 Z"
         transform="translate(-2.5000001e-6)"
         id="path7" />
    </clipPath>
    <clipPath
       clipPathUnits="userSpaceOnUse"
       id="clipPath9">
      <path
         d="M 0,0 H 853 V 802 H 0 Z"
         transform="translate(-2.5000001e-6)"
         id="path9" />
    </clipPath>
    <clipPath
       clipPathUnits="userSpaceOnUse"
       id="clipPath11">
      <path
         d="M 0,0 H 853 V 802 H 0 Z"
         transform="translate(-2.5000001e-6)"
         id="path11" />
    </clipPath>
    <clipPath
       clipPathUnits="userSpaceOnUse"
       id="clipPath13">
      <path
         d="M 0,0 H 853 V 802 H 0 Z"
         transform="translate(-2.5000001e-6)"
         id="path13" />
    </clipPath>
    <clipPath
       clipPathUnits="userSpaceOnUse"
       id="clipPath19">
      <path
         d="M 0,0 H 853 V 802 H 0 Z"
         transform="translate(-2.5000001e-6)"
         id="path19" />
    </clipPath>
    <clipPath
       clipPathUnits="userSpaceOnUse"
       id="clipPath33">
      <path
         d="M 0,0 H 853 V 802 H 0 Z"
         transform="translate(-189.00001,-491.00001)"
         id="path33" />
    </clipPath>
    <clipPath
       clipPathUnits="userSpaceOnUse"
       id="clipPath35">
      <path
         d="M 0,0 H 853 V 802 H 0 Z"
         transform="translate(-189.00001,-491.00001)"
         id="path35" />
    </clipPath>
    <clipPath
       clipPathUnits="userSpaceOnUse"
       id="clipPath37">
      <path
         d="M 0,0 H 853 V 802 H 0 Z"
         transform="translate(-239,-491.00001)"
         id="path37" />
    </clipPath>
    <clipPath
       clipPathUnits="userSpaceOnUse"
       id="clipPath39">
      <path
         d="M 0,0 H 853 V 802 H 0 Z"
         transform="translate(-239,-491.00001)"
         id="path39" />
    </clipPath>
    <clipPath
       clipPathUnits="userSpaceOnUse"
       id="clipPath41">
      <path
         d="M 0,0 H 853 V 802 H 0 Z"
         transform="translate(-289.00001,-491.00001)"
         id="path41" />
    </clipPath>
    <clipPath
       clipPathUnits="userSpaceOnUse"
       id="clipPath43">
      <path
         d="M 0,0 H 853 V 802 H 0 Z"
         transform="translate(-289.00001,-491.00001)"
         id="path43" />
    </clipPath>
    <clipPath
       clipPathUnits="userSpaceOnUse"
       id="clipPath45">
      <path
         d="M 0,0 H 853 V 802 H 0 Z"
         transform="translate(-339.00001,-491.00001)"
         id="path45" />
    </clipPath>
    <clipPath
       clipPathUnits="userSpaceOnUse"
       id="clipPath47">
      <path
         d="M 0,0 H 853 V 802 H 0 Z"
         transform="translate(-339.00001,-491.00001)"
         id="path47" />
    </clipPath>
    <clipPath
       clipPathUnits="userSpaceOnUse"
       id="clipPath49">
      <path
         d="M 0,0 H 853 V 802 H 0 Z"
         transform="translate(-389.00001,-491.00001)"
         id="path49" />
    </clipPath>
    <clipPath
       clipPathUnits="userSpaceOnUse"
       id="clipPath51">
      <path
         d="M 0,0 H 853 V 802 H 0 Z"
         transform="translate(-389.00001,-491.00001)"
         id="path51" />
    </clipPath>
    <clipPath
       clipPathUnits="userSpaceOnUse"
       id="clipPath53">
      <path
         d="M 0,0 H 853 V 802 H 0 Z"
         transform="translate(-439.00001,-491.00001)"
         id="path53" />
    </clipPath>
    <clipPath
       clipPathUnits="userSpaceOnUse"
       id="clipPath55">
      <path
         d="M 0,0 H 853 V 802 H 0 Z"
         transform="translate(-439.00001,-491.00001)"
         id="path55" />
    </clipPath>
    <clipPath
       clipPathUnits="userSpaceOnUse"
       id="clipPath57">
      <path
         d="M 0,0 H 853 V 802 H 0 Z"
         transform="translate(-489.00001,-491.00001)"
         id="path57" />
    </clipPath>
    <clipPath
       clipPathUnits="userSpaceOnUse"
       id="clipPath59">
      <path
         d="M 0,0 H 853 V 802 H 0 Z"
         transform="translate(-489.00001,-491.00001)"
         id="path59" />
    </clipPath>
    <clipPath
       clipPathUnits="userSpaceOnUse"
       id="clipPath61">
      <path
         d="M 0,0 H 853 V 802 H 0 Z"
         transform="translate(-539.00001,-491.00001)"
         id="path61" />
    </clipPath>
    <clipPath
       clipPathUnits="userSpaceOnUse"
       id="clipPath63">
      <path
         d="M 0,0 H 853 V 802 H 0 Z"
         transform="translate(-539.00001,-491.00001)"
         id="path63" />
    </clipPath>
    <clipPath
       clipPathUnits="userSpaceOnUse"
       id="clipPath65">
      <path
         d="M 0,0 H 853 V 802 H 0 Z"
         transform="translate(-589.00001,-491.00001)"
         id="path65" />
    </clipPath>
    <clipPath
       clipPathUnits="userSpaceOnUse"
       id="clipPath67">
      <path
         d="M 0,0 H 853 V 802 H 0 Z"
         transform="translate(-589.00001,-491.00001)"
         id="path67" />
    </clipPath>
    <clipPath
       clipPathUnits="userSpaceOnUse"
       id="clipPath69">
      <path
         d="M 0,0 H 853 V 802 H 0 Z"
         transform="translate(-636.00002,-491.00001)"
         id="path69" />
    </clipPath>
    <clipPath
       clipPathUnits="userSpaceOnUse"
       id="clipPath71">
      <path
         d="M 0,0 H 853 V 802 H 0 Z"
         transform="translate(-636.00002,-491.00001)"
         id="path71" />
    </clipPath>
    <clipPath
       clipPathUnits="userSpaceOnUse"
       id="clipPath73">
      <path
         d="M 0,0 H 853 V 802 H 0 Z"
         transform="translate(-686.00001,-491.00001)"
         id="path73" />
    </clipPath>
    <clipPath
       clipPathUnits="userSpaceOnUse"
       id="clipPath75">
      <path
         d="M 0,0 H 853 V 802 H 0 Z"
         transform="translate(-686.00001,-491.00001)"
         id="path75" />
    </clipPath>
    <clipPath
       clipPathUnits="userSpaceOnUse"
       id="clipPath97">
      <path
         d="M 0,0 H 853 V 802 H 0 Z"
         transform="translate(-123,-580.00002)"
         id="path97" />
    </clipPath>
    <clipPath
       clipPathUnits="userSpaceOnUse"
       id="clipPath99">
      <path
         d="M 0,0 H 853 V 802 H 0 Z"
         transform="translate(-123,-580.00002)"
         id="path99" />
    </clipPath>
    <clipPath
       clipPathUnits="userSpaceOnUse"
       id="clipPath101">
      <path
         d="M 0,0 H 853 V 802 H 0 Z"
         transform="translate(-123,-530.00001)"
         id="path101" />
    </clipPath>
    <clipPath
       clipPathUnits="userSpaceOnUse"
       id="clipPath103">
      <path
         d="M 0,0 H 853 V 802 H 0 Z"
         transform="translate(-123,-530.00001)"
         id="path103" />
    </clipPath>
    <clipPath
       clipPathUnits="userSpaceOnUse"
       id="clipPath105">
      <path
         d="M 0,0 H 853 V 802 H 0 Z"
         transform="translate(-127,-430.00001)"
         id="path105" />
    </clipPath>
    <clipPath
       clipPathUnits="userSpaceOnUse"
       id="clipPath107">
      <path
         d="M 0,0 H 853 V 802 H 0 Z"
         transform="translate(-127,-430.00001)"
         id="path107" />
    </clipPath>
    <clipPath
       clipPathUnits="userSpaceOnUse"
       id="clipPath109">
      <path
         d="M 0,0 H 853 V 802 H 0 Z"
         transform="translate(-127,-380.00001)"
         id="path109" />
    </clipPath>
    <clipPath
       clipPathUnits="userSpaceOnUse"
       id="clipPath111">
      <path
         d="M 0,0 H 853 V 802 H 0 Z"
         transform="translate(-127,-380.00001)"
         id="path111" />
    </clipPath>
    <clipPath
       clipPathUnits="userSpaceOnUse"
       id="clipPath113">
      <path
         d="M 0,0 H 853 V 802 H 0 Z"
         transform="translate(-127,-330.00001)"
         id="path113" />
    </clipPath>
    <clipPath
       clipPathUnits="userSpaceOnUse"
       id="clipPath115">
      <path
         d="M 0,0 H 853 V 802 H 0 Z"
         transform="translate(-127,-330.00001)"
         id="path115" />
    </clipPath>
    <clipPath
       clipPathUnits="userSpaceOnUse"
       id="clipPath125">
      <path
         d="M 0,0 H 853 V 802 H 0 Z"
         transform="translate(-127,-491.00001)"
         id="path125" />
    </clipPath>
    <clipPath
       clipPathUnits="userSpaceOnUse"
       id="clipPath127">
      <path
         d="M 0,0 H 853 V 802 H 0 Z"
         transform="translate(-127,-491.00001)"
         id="path127" />
    </clipPath>
    <clipPath
       clipPathUnits="userSpaceOnUse"
       id="clipPath129">
      <path
         d="M 0,0 H 853 V 802 H 0 Z"
         transform="translate(-2.5000001e-6)"
         id="path129" />
    </clipPath>
    <clipPath
       clipPathUnits="userSpaceOnUse"
       id="clipPath131">
      <path
         d="M 0,0 H 853 V 802 H 0 Z"
         transform="translate(-2.5000001e-6)"
         id="path131" />
    </clipPath>
    <clipPath
       clipPathUnits="userSpaceOnUse"
       id="clipPath133">
      <path
         d="M 0,0 H 853 V 802 H 0 Z"
         transform="translate(-2.5000001e-6)"
         id="path133" />
    </clipPath>
    <clipPath
       clipPathUnits="userSpaceOnUse"
       id="clipPath135">
      <path
         d="M 0,0 H 853 V 802 H 0 Z"
         transform="translate(-2.5000001e-6)"
         id="path135" />
    </clipPath>
    <clipPath
       clipPathUnits="userSpaceOnUse"
       id="clipPath137">
      <path
         d="M 0,0 H 853 V 802 H 0 Z"
         transform="translate(-2.5000001e-6)"
         id="path137" />
    </clipPath>
    <clipPath
       clipPathUnits="userSpaceOnUse"
       id="clipPath139">
      <path
         d="M 0,0 H 853 V 802 H 0 Z"
         transform="translate(-2.5000001e-6)"
         id="path139" />
    </clipPath>
    <clipPath
       clipPathUnits="userSpaceOnUse"
       id="clipPath141">
      <path
         d="M 0,0 H 853 V 802 H 0 Z"
         transform="translate(-2.5000001e-6)"
         id="path141" />
    </clipPath>
    <clipPath
       clipPathUnits="userSpaceOnUse"
       id="clipPath143">
      <path
         d="M 0,0 H 853 V 802 H 0 Z"
         transform="translate(-2.5000001e-6)"
         id="path143" />
    </clipPath>
    <clipPath
       clipPathUnits="userSpaceOnUse"
       id="clipPath145">
      <path
         d="M 0,0 H 853 V 802 H 0 Z"
         transform="translate(-2.5000001e-6)"
         id="path145" />
    </clipPath>
    <clipPath
       clipPathUnits="userSpaceOnUse"
       id="clipPath147">
      <path
         d="M 0,0 H 853 V 802 H 0 Z"
         transform="translate(-2.5000001e-6)"
         id="path147" />
    </clipPath>
    <clipPath
       clipPathUnits="userSpaceOnUse"
       id="clipPath149">
      <path
         d="M 0,0 H 853 V 802 H 0 Z"
         transform="translate(-2.5000001e-6)"
         id="path149" />
    </clipPath>
    <clipPath
       clipPathUnits="userSpaceOnUse"
       id="clipPath151">
      <path
         d="M 0,0 H 853 V 802 H 0 Z"
         transform="translate(-2.5000001e-6)"
         id="path151" />
    </clipPath>
    <clipPath
       clipPathUnits="userSpaceOnUse"
       id="clipPath153">
      <path
         d="M 0,0 H 853 V 802 H 0 Z"
         transform="translate(-2.5000001e-6)"
         id="path153" />
    </clipPath>
    <clipPath
       clipPathUnits="userSpaceOnUse"
       id="clipPath155">
      <path
         d="M 0,0 H 853 V 802 H 0 Z"
         transform="translate(-2.5000001e-6)"
         id="path155" />
    </clipPath>
    <clipPath
       clipPathUnits="userSpaceOnUse"
       id="clipPath157">
      <path
         d="M 0,0 H 853 V 802 H 0 Z"
         transform="translate(-2.5000001e-6)"
         id="path157" />
    </clipPath>
    <clipPath
       clipPathUnits="userSpaceOnUse"
       id="clipPath159">
      <path
         d="M 0,0 H 853 V 802 H 0 Z"
         transform="translate(-2.5000001e-6)"
         id="path159" />
    </clipPath>
    <clipPath
       clipPathUnits="userSpaceOnUse"
       id="clipPath161">
      <path
         d="M 0,0 H 853 V 802 H 0 Z"
         transform="translate(-2.5000001e-6)"
         id="path161" />
    </clipPath>
    <clipPath
       clipPathUnits="userSpaceOnUse"
       id="clipPath163">
      <path
         d="M 0,0 H 853 V 802 H 0 Z"
         transform="translate(-2.5000001e-6)"
         id="path163" />
    </clipPath>
    <clipPath
       clipPathUnits="userSpaceOnUse"
       id="clipPath165">
      <path
         d="M 0,0 H 853 V 802 H 0 Z"
         transform="translate(-2.5000001e-6)"
         id="path165" />
    </clipPath>
    <clipPath
       clipPathUnits="userSpaceOnUse"
       id="clipPath167">
      <path
         d="M 0,0 H 853 V 802 H 0 Z"
         transform="translate(-2.5000001e-6)"
         id="path167" />
    </clipPath>
    <clipPath
       clipPathUnits="userSpaceOnUse"
       id="clipPath169">
      <path
         d="M 0,0 H 853 V 802 H 0 Z"
         transform="translate(-2.5000001e-6)"
         id="path169" />
    </clipPath>
    <clipPath
       clipPathUnits="userSpaceOnUse"
       id="clipPath171">
      <path
         d="M 0,0 H 853 V 802 H 0 Z"
         transform="translate(-2.5000001e-6)"
         id="path171" />
    </clipPath>
    <clipPath
       clipPathUnits="userSpaceOnUse"
       id="clipPath173">
      <path
         d="M 0,0 H 853 V 802 H 0 Z"
         transform="translate(-2.5000001e-6)"
         id="path173" />
    </clipPath>
    <clipPath
       clipPathUnits="userSpaceOnUse"
       id="clipPath175">
      <path
         d="M 0,0 H 853 V 802 H 0 Z"
         transform="translate(-146,-366.00001)"
         id="path175" />
    </clipPath>
    <clipPath
       clipPathUnits="userSpaceOnUse"
       id="clipPath177">
      <path
         d="M 0,0 H 853 V 802 H 0 Z"
         transform="translate(-146,-366.00001)"
         id="path177" />
    </clipPath>
    <clipPath
       clipPathUnits="userSpaceOnUse"
       id="clipPath179">
      <path
         d="M 0,0 H 853 V 802 H 0 Z"
         transform="translate(-2.5000001e-6)"
         id="path179" />
    </clipPath>
    <clipPath
       clipPathUnits="userSpaceOnUse"
       id="clipPath181">
      <path
         d="M 0,0 H 853 V 802 H 0 Z"
         transform="translate(-2.5000001e-6)"
         id="path181" />
    </clipPath>
    <clipPath
       clipPathUnits="userSpaceOnUse"
       id="clipPath183">
      <path
         d="M 0,0 H 853 V 802 H 0 Z"
         transform="translate(-2.5000001e-6)"
         id="path183" />
    </clipPath>
    <clipPath
       clipPathUnits="userSpaceOnUse"
       id="clipPath185">
      <path
         d="M 0,0 H 853 V 802 H 0 Z"
         transform="translate(-2.5000001e-6)"
         id="path185" />
    </clipPath>
    <clipPath
       clipPathUnits="userSpaceOnUse"
       id="clipPath187">
      <path
         d="M 0,0 H 853 V 802 H 0 Z"
         transform="translate(-2.5000001e-6)"
         id="path187" />
    </clipPath>
    <clipPath
       clipPathUnits="userSpaceOnUse"
       id="clipPath189">
      <path
         d="M 0,0 H 853 V 802 H 0 Z"
         transform="translate(-2.5000001e-6)"
         id="path189" />
    </clipPath>
    <clipPath
       clipPathUnits="userSpaceOnUse"
       id="clipPath191">
      <path
         d="M 0,0 H 853 V 802 H 0 Z"
         transform="translate(-2.5000001e-6)"
         id="path191" />
    </clipPath>
    <clipPath
       clipPathUnits="userSpaceOnUse"
       id="clipPath193">
      <path
         d="M 0,0 H 853 V 802 H 0 Z"
         transform="translate(-2.5000001e-6)"
         id="path193" />
    </clipPath>
    <clipPath
       clipPathUnits="userSpaceOnUse"
       id="clipPath195">
      <path
         d="M 0,0 H 853 V 802 H 0 Z"
         transform="translate(-2.5000001e-6)"
         id="path195" />
    </clipPath>
    <clipPath
       clipPathUnits="userSpaceOnUse"
       id="clipPath197">
      <path
         d="M 0,0 H 853 V 802 H 0 Z"
         transform="translate(-2.5000001e-6)"
         id="path197" />
    </clipPath>
    <clipPath
       clipPathUnits="userSpaceOnUse"
       id="clipPath199">
      <path
         d="M 0,0 H 853 V 802 H 0 Z"
         transform="translate(-2.5000001e-6)"
         id="path199" />
    </clipPath>
    <clipPath
       clipPathUnits="userSpaceOnUse"
       id="clipPath201">
      <path
         d="M 0,0 H 853 V 802 H 0 Z"
         transform="translate(-696.00002,-416.00001)"
         id="path201" />
    </clipPath>
    <clipPath
       clipPathUnits="userSpaceOnUse"
       id="clipPath203">
      <path
         d="M 0,0 H 853 V 802 H 0 Z"
         transform="translate(-696.00002,-416.00001)"
         id="path203" />
    </clipPath>
    <clipPath
       clipPathUnits="userSpaceOnUse"
       id="clipPath205">
      <path
         d="M 0,0 H 853 V 802 H 0 Z"
         transform="translate(-2.5000001e-6)"
         id="path205" />
    </clipPath>
    <clipPath
       clipPathUnits="userSpaceOnUse"
       id="clipPath207">
      <path
         d="M 0,0 H 853 V 802 H 0 Z"
         transform="translate(-2.5000001e-6)"
         id="path207" />
    </clipPath>
    <clipPath
       clipPathUnits="userSpaceOnUse"
       id="clipPath209">
      <path
         d="M 0,0 H 853 V 802 H 0 Z"
         transform="translate(-2.5000001e-6)"
         id="path209" />
    </clipPath>
    <clipPath
       clipPathUnits="userSpaceOnUse"
       id="clipPath211">
      <path
         d="M 0,0 H 853 V 802 H 0 Z"
         transform="translate(-2.5000001e-6)"
         id="path211" />
    </clipPath>
    <clipPath
       clipPathUnits="userSpaceOnUse"
       id="clipPath213">
      <path
         d="M 0,0 H 853 V 802 H 0 Z"
         transform="translate(-2.5000001e-6)"
         id="path213" />
    </clipPath>
    <clipPath
       clipPathUnits="userSpaceOnUse"
       id="clipPath215">
      <path
         d="M 0,0 H 853 V 802 H 0 Z"
         transform="translate(-2.5000001e-6)"
         id="path215" />
    </clipPath>
  </defs>
  <g
     id="g1"
     clip-path="url(#clipPath1)">
    <path
       id="path2"
       d="M 0,0 H 853 V 802 H 0 V 0"
       style="fill:#ffffff;fill-opacity:1;fill-rule:nonzero;stroke:none"
       transform="matrix(1.3333333,0,0,1.3333333,-134.10933,-422.13547)"
       clip-path="url(#clipPath3)" />
    <path
       id="path4"
       d="M 42,0 V 802 M 42,0 V 802 M 92,0 V 802 M 192,0 V 802 M 242,0 V 802 M 292,0 V 802 M 342,0 V 802 M 392,0 V 802 M 442,0 V 802 M 492,0 V 802 M 542,0 V 802 M 592,0 V 802 M 642,0 V 802 M 692,0 V 802 M 742,0 V 802 M 792,0 V 802 M 842,0 v 802"
       style="fill:none;stroke:#c0c0c0;stroke-width:1;stroke-linecap:round;stroke-linejoin:round;stroke-miterlimit:10;stroke-dasharray:none;stroke-opacity:1"
       transform="matrix(1.3333333,0,0,1.3333333,-134.10933,-422.13547)"
       clip-path="url(#clipPath5)" />
    <path
       id="path6"
       d="M 2,0 V 802 M 12,0 V 802 M 22,0 V 802 M 32,0 V 802 M 52,0 V 802 M 62,0 V 802 M 72,0 V 802 M 82,0 V 802 M 102,0 V 802 M 112,0 V 802 M 122,0 V 802 M 132,0 V 802 M 152,0 V 802 M 162,0 V 802 M 172,0 V 802 M 182,0 V 802 M 202,0 V 802 M 212,0 V 802 M 222,0 V 802 M 232,0 V 802 M 252,0 V 802 M 262,0 V 802 M 272,0 V 802 M 282,0 V 802 M 302,0 V 802 M 312,0 V 802 M 322,0 V 802 M 332,0 V 802 M 352,0 V 802 M 362,0 V 802 M 372,0 V 802 M 382,0 V 802 M 402,0 V 802 M 412,0 V 802 M 422,0 V 802 M 432,0 V 802 M 452,0 V 802 M 462,0 V 802 M 472,0 V 802 M 482,0 V 802 M 502,0 V 802 M 512,0 V 802 M 522,0 V 802 M 532,0 V 802 M 552,0 V 802 M 562,0 V 802 M 572,0 V 802 M 582,0 V 802 M 602,0 V 802 M 612,0 V 802 M 622,0 V 802 M 632,0 V 802 M 652,0 V 802 M 662,0 V 802 M 672,0 V 802 M 682,0 V 802 M 702,0 V 802 M 712,0 V 802 M 722,0 V 802 M 732,0 V 802 M 752,0 V 802 M 762,0 V 802 M 772,0 V 802 M 782,0 V 802 M 802,0 V 802 M 812,0 V 802 M 822,0 V 802 M 832,0 V 802 M 852,0 v 802"
       style="fill:none;stroke:#c0c0c0;stroke-width:1;stroke-linecap:round;stroke-linejoin:round;stroke-miterlimit:10;stroke-dasharray:none;stroke-opacity:0.235294"
       transform="matrix(1.3333333,0,0,1.3333333,-134.10933,-422.13547)"
       clip-path="url(#clipPath7)" />
    <path
       id="path8"
       d="M 0,26 H 853 M 0,26 H 853 M 0,76 H 853 M 0,126 H 853 M 0,176 H 853 M 0,226 H 853 M 0,276 H 853 M 0,326 H 853 M 0,376 H 853 M 0,426 H 853 M 0,526 H 853 M 0,576 H 853 M 0,626 H 853 M 0,676 H 853 M 0,726 H 853 M 0,776 h 853"
       style="fill:none;stroke:#c0c0c0;stroke-width:1;stroke-linecap:round;stroke-linejoin:round;stroke-miterlimit:10;stroke-dasharray:none;stroke-opacity:1"
       transform="matrix(1.3333333,0,0,1.3333333,-134.10933,-422.13547)"
       clip-path="url(#clipPath9)" />
    <path
       id="path10"
       d="M 0,6 H 853 M 0,6 H 853 M 0,16 H 853 M 0,36 H 853 M 0,46 H 853 M 0,56 H 853 M 0,66 H 853 M 0,86 H 853 M 0,96 H 853 M 0,106 H 853 M 0,116 H 853 M 0,136 H 853 M 0,146 H 853 M 0,156 H 853 M 0,166 H 853 M 0,186 H 853 M 0,196 H 853 M 0,206 H 853 M 0,216 H 853 M 0,236 H 853 M 0,246 H 853 M 0,256 H 853 M 0,266 H 853 M 0,286 H 853 M 0,296 H 853 M 0,306 H 853 M 0,316 H 853 M 0,336 H 853 M 0,346 H 853 M 0,356 H 853 M 0,366 H 853 M 0,386 H 853 M 0,396 H 853 M 0,406 H 853 M 0,416 H 853 M 0,436 H 853 M 0,446 H 853 M 0,456 H 853 M 0,466 H 853 M 0,486 H 853 M 0,496 H 853 M 0,506 H 853 M 0,516 H 853 M 0,536 H 853 M 0,546 H 853 M 0,556 H 853 M 0,566 H 853 M 0,586 H 853 M 0,596 H 853 M 0,606 H 853 M 0,616 H 853 M 0,636 H 853 M 0,646 H 853 M 0,656 H 853 M 0,666 H 853 M 0,686 H 853 M 0,696 H 853 M 0,706 H 853 M 0,716 H 853 M 0,736 H 853 M 0,746 H 853 M 0,756 H 853 M 0,766 H 853 M 0,786 H 853 M 0,796 h 853"
       style="fill:none;stroke:#c0c0c0;stroke-width:1;stroke-linecap:round;stroke-linejoin:round;stroke-miterlimit:10;stroke-dasharray:none;stroke-opacity:0.235294"
       transform="matrix(1.3333333,0,0,1.3333333,-134.10933,-422.13547)"
       clip-path="url(#clipPath11)" />
    <path
       id="path12"
       d="M 142,2 V 802"
       style="fill:none;stroke:#000000;stroke-width:1;stroke-linecap:butt;stroke-linejoin:miter;stroke-miterlimit:10;stroke-dasharray:none;stroke-opacity:1"
       transform="matrix(1.3333333,0,0,1.3333333,-134.10933,-422.13547)"
       clip-path="url(#clipPath13)" />
    <path
       id="path18"
       d="M 0,476 H 851"
       style="fill:none;stroke:#000000;stroke-width:1;stroke-linecap:butt;stroke-linejoin:miter;stroke-miterlimit:10;stroke-dasharray:none;stroke-opacity:1"
       transform="matrix(1.3333333,0,0,1.3333333,-134.10933,-422.13547)"
       clip-path="url(#clipPath19)" />
    <path
       id="path32"
       d="M 3.1054375,-6.1757438 V 3.75e-5 H 4.160125 v -8.671875 H 3.4687187 c -0.375,1.3242187 -0.609375,1.5117187 -2.25,1.7226562 v 0.7734375 z m 0,0"
       style="fill:#000000;fill-opacity:1;fill-rule:nonzero;stroke:none"
       aria-label="1"
       transform="matrix(1.3333333,0,0,1.3333333,117.89067,232.5312)"
       clip-path="url(#clipPath33)" />
    <path
       id="path34"
       d="M 3.1054375,-6.1757438 V 3.75e-5 H 4.160125 v -8.671875 H 3.4687187 c -0.375,1.3242187 -0.609375,1.5117187 -2.25,1.7226562 v 0.7734375 z m 0,0"
       style="fill:#000000;fill-opacity:1;fill-rule:nonzero;stroke:none"
       aria-label="1"
       transform="matrix(1.3333333,0,0,1.3333333,117.89067,232.5312)"
       clip-path="url(#clipPath35)" />
    <path
       id="path36"
       d="M 6.0712578,-1.0429313 H 1.5946953 c 0.1054688,-0.7265625 0.4921875,-1.171875 1.5351563,-1.8164062 l 1.2070312,-0.6679688 c 1.1835938,-0.65625 1.7929688,-1.546875 1.7929688,-2.6132812 0,-0.7265625 -0.28125,-1.3945313 -0.7851563,-1.8632813 C 4.8407891,-8.4609 4.2079766,-8.6718375 3.4111016,-8.6718375 c -1.078125,0 -1.8867188,0.375 -2.3554688,1.125 -0.29296874,0.4570312 -0.43359374,0.9960937 -0.45703124,1.875 H 1.6532891 c 0.035156,-0.5976563 0.1171875,-0.9375 0.2578125,-1.2304688 0.2695312,-0.5273437 0.8203125,-0.8554687 1.4648437,-0.8554687 0.9609375,0 1.6757813,0.703125 1.6757813,1.640625 0,0.6914062 -0.3984375,1.2890625 -1.1484375,1.7226562 l -1.1015625,0.65625 c -1.78125,1.0195313 -2.29687504,1.828125 -2.39062504,3.72656255 H 6.0712578 Z m 0,0"
       style="fill:#000000;fill-opacity:1;fill-rule:nonzero;stroke:none"
       aria-label="2"
       transform="matrix(1.3333333,0,0,1.3333333,184.55733,232.5312)"
       clip-path="url(#clipPath37)" />
    <path
       id="path38"
       d="M 6.0712578,-1.0429313 H 1.5946953 c 0.1054688,-0.7265625 0.4921875,-1.171875 1.5351563,-1.8164062 l 1.2070312,-0.6679688 c 1.1835938,-0.65625 1.7929688,-1.546875 1.7929688,-2.6132812 0,-0.7265625 -0.28125,-1.3945313 -0.7851563,-1.8632813 C 4.8407891,-8.4609 4.2079766,-8.6718375 3.4111016,-8.6718375 c -1.078125,0 -1.8867188,0.375 -2.3554688,1.125 -0.29296874,0.4570312 -0.43359374,0.9960937 -0.45703124,1.875 H 1.6532891 c 0.035156,-0.5976563 0.1171875,-0.9375 0.2578125,-1.2304688 0.2695312,-0.5273437 0.8203125,-0.8554687 1.4648437,-0.8554687 0.9609375,0 1.6757813,0.703125 1.6757813,1.640625 0,0.6914062 -0.3984375,1.2890625 -1.1484375,1.7226562 l -1.1015625,0.65625 c -1.78125,1.0195313 -2.29687504,1.828125 -2.39062504,3.72656255 H 6.0712578 Z m 0,0"
       style="fill:#000000;fill-opacity:1;fill-rule:nonzero;stroke:none"
       aria-label="2"
       transform="matrix(1.3333333,0,0,1.3333333,184.55733,232.5312)"
       clip-path="url(#clipPath39)" />
    <path
       id="path40"
       d="m 2.6474297,-3.9960563 h 0.5742187 c 1.1601563,0 1.7695313,0.5390625 1.7695313,1.5820313 0,1.0898437 -0.65625,1.7578125 -1.7578125,1.7578125 -1.1601563,0 -1.7226563,-0.5859375 -1.7929688,-1.8632813 H 0.38571094 c 0.046875,0.6914063 0.1640625,1.1484375 0.375,1.5351563 0.43359376,0.84375 1.26562496,1.265625 2.42578126,1.265625 1.7578125,0 2.8828125,-1.06640625 2.8828125,-2.7070313 0,-1.1015625 -0.421875,-1.6992187 -1.4414063,-2.0625 0.796875,-0.328125 1.1953125,-0.9257812 1.1953125,-1.8046875 0,-1.4882812 -0.9726562,-2.3789062 -2.6015625,-2.3789062 -1.7109375,0 -2.62499996,0.9609375 -2.66015621,2.7890625 H 1.6161797 c 0.011719,-0.5273438 0.058594,-0.8203125 0.1992187,-1.0898438 0.234375,-0.4921875 0.7617188,-0.7851562 1.4179688,-0.7851562 0.9375,0 1.5,0.5742187 1.5,1.5 0,0.6210937 -0.2109375,0.984375 -0.6796875,1.1953125 -0.28125,0.1171875 -0.6679688,0.1640625 -1.40625,0.1757812 z m 0,0"
       style="fill:#000000;fill-opacity:1;fill-rule:nonzero;stroke:none"
       aria-label="3"
       transform="matrix(1.3333333,0,0,1.3333333,251.224,232.5312)"
       clip-path="url(#clipPath41)" />
    <path
       id="path42"
       d="m 2.6474297,-3.9960563 h 0.5742187 c 1.1601563,0 1.7695313,0.5390625 1.7695313,1.5820313 0,1.0898437 -0.65625,1.7578125 -1.7578125,1.7578125 -1.1601563,0 -1.7226563,-0.5859375 -1.7929688,-1.8632813 H 0.38571094 c 0.046875,0.6914063 0.1640625,1.1484375 0.375,1.5351563 0.43359376,0.84375 1.26562496,1.265625 2.42578126,1.265625 1.7578125,0 2.8828125,-1.06640625 2.8828125,-2.7070313 0,-1.1015625 -0.421875,-1.6992187 -1.4414063,-2.0625 0.796875,-0.328125 1.1953125,-0.9257812 1.1953125,-1.8046875 0,-1.4882812 -0.9726562,-2.3789062 -2.6015625,-2.3789062 -1.7109375,0 -2.62499996,0.9609375 -2.66015621,2.7890625 H 1.6161797 c 0.011719,-0.5273438 0.058594,-0.8203125 0.1992187,-1.0898438 0.234375,-0.4921875 0.7617188,-0.7851562 1.4179688,-0.7851562 0.9375,0 1.5,0.5742187 1.5,1.5 0,0.6210937 -0.2109375,0.984375 -0.6796875,1.1953125 -0.28125,0.1171875 -0.6679688,0.1640625 -1.40625,0.1757812 z m 0,0"
       style="fill:#000000;fill-opacity:1;fill-rule:nonzero;stroke:none"
       aria-label="3"
       transform="matrix(1.3333333,0,0,1.3333333,251.224,232.5312)"
       clip-path="url(#clipPath43)" />
    <path
       id="path44"
       d="M 3.92575,-2.0976188 V 3.75e-5 H 4.9804375 V -2.0976188 H 6.2343437 V -3.0468375 H 4.9804375 v -5.625 H 4.1952812 L 0.3398125,-3.2109 v 1.1132812 z m 0,-0.9492187 H 1.2655937 L 3.92575,-6.8788688 Z m 0,0"
       style="fill:#000000;fill-opacity:1;fill-rule:nonzero;stroke:none"
       aria-label="4"
       transform="matrix(1.3333333,0,0,1.3333333,317.89067,232.5312)"
       clip-path="url(#clipPath45)" />
    <path
       id="path46"
       d="M 3.92575,-2.0976188 V 3.75e-5 H 4.9804375 V -2.0976188 H 6.2343437 V -3.0468375 H 4.9804375 v -5.625 H 4.1952812 L 0.3398125,-3.2109 v 1.1132812 z m 0,-0.9492187 H 1.2655937 L 3.92575,-6.8788688 Z m 0,0"
       style="fill:#000000;fill-opacity:1;fill-rule:nonzero;stroke:none"
       aria-label="4"
       transform="matrix(1.3333333,0,0,1.3333333,317.89067,232.5312)"
       clip-path="url(#clipPath47)" />
    <path
       id="path48"
       d="M 5.7079766,-8.507775 H 1.3251641 L 0.68063281,-3.8788688 H 1.6532891 c 0.4921875,-0.5859375 0.9023437,-0.7851562 1.5703125,-0.7851562 1.1484375,0 1.8515625,0.7734375 1.8515625,2.0390625 0,1.21875 -0.703125,1.96875 -1.8632813,1.96875 -0.9140625,0 -1.4882812,-0.46875 -1.734375,-1.4296875 H 0.42282031 c 0.140625,0.6914062 0.2578125,1.03125 0.515625,1.34765625 C 1.4189141,-0.0937125 2.2861016,0.2812875 3.2353203,0.2812875 c 1.7226563,0 2.9179688,-1.25390625 2.9179688,-3.0585938 0,-1.6757812 -1.1132813,-2.8242187 -2.7421875,-2.8242187 -0.5976563,0 -1.078125,0.1523437 -1.5703125,0.515625 l 0.328125,-2.3789063 h 3.5390625 z m 0,0"
       style="fill:#000000;fill-opacity:1;fill-rule:nonzero;stroke:none"
       aria-label="5"
       transform="matrix(1.3333333,0,0,1.3333333,384.55733,232.5312)"
       clip-path="url(#clipPath49)" />
    <path
       id="path50"
       d="M 5.7079766,-8.507775 H 1.3251641 L 0.68063281,-3.8788688 H 1.6532891 c 0.4921875,-0.5859375 0.9023437,-0.7851562 1.5703125,-0.7851562 1.1484375,0 1.8515625,0.7734375 1.8515625,2.0390625 0,1.21875 -0.703125,1.96875 -1.8632813,1.96875 -0.9140625,0 -1.4882812,-0.46875 -1.734375,-1.4296875 H 0.42282031 c 0.140625,0.6914062 0.2578125,1.03125 0.515625,1.34765625 C 1.4189141,-0.0937125 2.2861016,0.2812875 3.2353203,0.2812875 c 1.7226563,0 2.9179688,-1.25390625 2.9179688,-3.0585938 0,-1.6757812 -1.1132813,-2.8242187 -2.7421875,-2.8242187 -0.5976563,0 -1.078125,0.1523437 -1.5703125,0.515625 l 0.328125,-2.3789063 h 3.5390625 z m 0,0"
       style="fill:#000000;fill-opacity:1;fill-rule:nonzero;stroke:none"
       aria-label="5"
       transform="matrix(1.3333333,0,0,1.3333333,384.55733,232.5312)"
       clip-path="url(#clipPath51)" />
    <path
       id="path52"
       d="m 5.9755547,-6.4218375 c -0.1992188,-1.4179688 -1.1132813,-2.25 -2.4140625,-2.25 -0.9375,0 -1.7695313,0.4570312 -2.2734375,1.2304687 C 0.73727344,-6.5859 0.51461719,-5.5312125 0.51461719,-3.9609 c 0,1.4648437 0.19921875,2.390625 0.71484371,3.15234375 0.4570313,0.71484375 1.2070313,1.08984375 2.1445313,1.08984375 1.6171875,0 2.7773437,-1.21875 2.7773437,-2.90625 0,-1.59375 -1.078125,-2.7304688 -2.6015625,-2.7304688 -0.84375,0 -1.5,0.3164063 -1.9570312,0.9492188 0.011719,-2.1445313 0.6914062,-3.328125 1.8984375,-3.328125 0.7382812,0 1.265625,0.46875 1.4296875,1.3125 z m -2.5546875,2.0039062 c 1.0195312,0 1.6523437,0.7265625 1.6523437,1.875 0,1.0898438 -0.7148437,1.8867188 -1.6875,1.8867188 -0.984375,0 -1.734375,-0.8320313 -1.734375,-1.9335938 0,-1.078125 0.7265625,-1.828125 1.7695313,-1.828125 z m 0,0"
       style="fill:#000000;fill-opacity:1;fill-rule:nonzero;stroke:none"
       aria-label="6"
       transform="matrix(1.3333333,0,0,1.3333333,451.224,232.5312)"
       clip-path="url(#clipPath53)" />
    <path
       id="path54"
       d="m 5.9755547,-6.4218375 c -0.1992188,-1.4179688 -1.1132813,-2.25 -2.4140625,-2.25 -0.9375,0 -1.7695313,0.4570312 -2.2734375,1.2304687 C 0.73727344,-6.5859 0.51461719,-5.5312125 0.51461719,-3.9609 c 0,1.4648437 0.19921875,2.390625 0.71484371,3.15234375 0.4570313,0.71484375 1.2070313,1.08984375 2.1445313,1.08984375 1.6171875,0 2.7773437,-1.21875 2.7773437,-2.90625 0,-1.59375 -1.078125,-2.7304688 -2.6015625,-2.7304688 -0.84375,0 -1.5,0.3164063 -1.9570312,0.9492188 0.011719,-2.1445313 0.6914062,-3.328125 1.8984375,-3.328125 0.7382812,0 1.265625,0.46875 1.4296875,1.3125 z m -2.5546875,2.0039062 c 1.0195312,0 1.6523437,0.7265625 1.6523437,1.875 0,1.0898438 -0.7148437,1.8867188 -1.6875,1.8867188 -0.984375,0 -1.734375,-0.8320313 -1.734375,-1.9335938 0,-1.078125 0.7265625,-1.828125 1.7695313,-1.828125 z m 0,0"
       style="fill:#000000;fill-opacity:1;fill-rule:nonzero;stroke:none"
       aria-label="6"
       transform="matrix(1.3333333,0,0,1.3333333,451.224,232.5312)"
       clip-path="url(#clipPath55)" />
    <path
       id="path56"
       d="M 6.2343437,-8.507775 H 0.55075 v 1.0429687 H 5.1445 C 3.1171562,-4.570275 2.2968437,-2.8007438 1.6523125,3.75e-5 h 1.1367187 c 0.46875,-2.71875 1.5351563,-5.0625 3.4453125,-7.6171875 z m 0,0"
       style="fill:#000000;fill-opacity:1;fill-rule:nonzero;stroke:none"
       aria-label="7"
       transform="matrix(1.3333333,0,0,1.3333333,517.89067,232.5312)"
       clip-path="url(#clipPath57)" />
    <path
       id="path58"
       d="M 6.2343437,-8.507775 H 0.55075 v 1.0429687 H 5.1445 C 3.1171562,-4.570275 2.2968437,-2.8007438 1.6523125,3.75e-5 h 1.1367187 c 0.46875,-2.71875 1.5351563,-5.0625 3.4453125,-7.6171875 z m 0,0"
       style="fill:#000000;fill-opacity:1;fill-rule:nonzero;stroke:none"
       aria-label="7"
       transform="matrix(1.3333333,0,0,1.3333333,517.89067,232.5312)"
       clip-path="url(#clipPath59)" />
    <path
       id="path60"
       d="m 4.6884453,-4.570275 c 0.890625,-0.5390625 1.171875,-0.9726563 1.171875,-1.7929688 0,-1.359375 -1.0429687,-2.3085937 -2.5546875,-2.3085937 -1.5,0 -2.56640624,0.9492187 -2.56640624,2.296875 0,0.8320312 0.28125004,1.2539062 1.16015624,1.8046875 -0.97265624,0.4921875 -1.45312499,1.1953125 -1.45312499,2.15625 0,1.58203125 1.16015629,2.6953125 2.85937499,2.6953125 1.6757813,0 2.8476563,-1.11328125 2.8476563,-2.6953125 0,-0.9609375 -0.4804688,-1.6640625 -1.4648438,-2.15625 z M 3.3056328,-7.7343375 c 0.890625,0 1.4765625,0.5390625 1.4765625,1.3945312 0,0.8203125 -0.5976562,1.359375 -1.4765625,1.359375 -0.9023437,0 -1.4765625,-0.5390625 -1.4765625,-1.3828125 0,-0.8320312 0.5742188,-1.3710937 1.4765625,-1.3710937 z m 0,3.6445312 c 1.0546875,0 1.7695313,0.6914063 1.7695313,1.6992188 0,1.0429687 -0.703125,1.734375 -1.7929688,1.734375 -1.0429687,0 -1.7578125,-0.7148438 -1.7578125,-1.7226563 0,-1.03125 0.703125,-1.7109375 1.78125,-1.7109375 z m 0,0"
       style="fill:#000000;fill-opacity:1;fill-rule:nonzero;stroke:none"
       aria-label="8"
       transform="matrix(1.3333333,0,0,1.3333333,584.55733,232.5312)"
       clip-path="url(#clipPath61)" />
    <path
       id="path62"
       d="m 4.6884453,-4.570275 c 0.890625,-0.5390625 1.171875,-0.9726563 1.171875,-1.7929688 0,-1.359375 -1.0429687,-2.3085937 -2.5546875,-2.3085937 -1.5,0 -2.56640624,0.9492187 -2.56640624,2.296875 0,0.8320312 0.28125004,1.2539062 1.16015624,1.8046875 -0.97265624,0.4921875 -1.45312499,1.1953125 -1.45312499,2.15625 0,1.58203125 1.16015629,2.6953125 2.85937499,2.6953125 1.6757813,0 2.8476563,-1.11328125 2.8476563,-2.6953125 0,-0.9609375 -0.4804688,-1.6640625 -1.4648438,-2.15625 z M 3.3056328,-7.7343375 c 0.890625,0 1.4765625,0.5390625 1.4765625,1.3945312 0,0.8203125 -0.5976562,1.359375 -1.4765625,1.359375 -0.9023437,0 -1.4765625,-0.5390625 -1.4765625,-1.3828125 0,-0.8320312 0.5742188,-1.3710937 1.4765625,-1.3710937 z m 0,3.6445312 c 1.0546875,0 1.7695313,0.6914063 1.7695313,1.6992188 0,1.0429687 -0.703125,1.734375 -1.7929688,1.734375 -1.0429687,0 -1.7578125,-0.7148438 -1.7578125,-1.7226563 0,-1.03125 0.703125,-1.7109375 1.78125,-1.7109375 z m 0,0"
       style="fill:#000000;fill-opacity:1;fill-rule:nonzero;stroke:none"
       aria-label="8"
       transform="matrix(1.3333333,0,0,1.3333333,584.55733,232.5312)"
       clip-path="url(#clipPath63)" />
    <path
       id="path64"
       d="m 0.63180469,-1.9804313 c 0.2109375,1.4179688 1.12500001,2.2617188 2.41406251,2.2617188 0.9492187,0 1.7929687,-0.45703125 2.296875,-1.2421875 0.5273437,-0.8554688 0.7617187,-1.9101563 0.7617187,-3.4804688 0,-1.4648437 -0.2109375,-2.390625 -0.7148437,-3.1523437 -0.46875,-0.7148438 -1.21875,-1.078125 -2.15625,-1.078125 -1.6171875,0 -2.77734376,1.2070312 -2.77734376,2.8828125 0,1.6054687 1.07812496,2.7304687 2.61328126,2.7304687 0.8085937,0 1.40625,-0.2929687 1.9453125,-0.9492187 -0.011719,2.15625 -0.6796875,3.3515625 -1.8984375,3.3515625 -0.7382813,0 -1.2539063,-0.4804688 -1.4296875,-1.3242188 z M 3.2216484,-7.757775 c 0.984375,0 1.734375,0.8320312 1.734375,1.9453125 0,1.078125 -0.7265625,1.8164062 -1.7695312,1.8164062 -1.0195313,0 -1.6523438,-0.7148437 -1.6523438,-1.875 0,-1.0898437 0.703125,-1.8867187 1.6875,-1.8867187 z m 0,0"
       style="fill:#000000;fill-opacity:1;fill-rule:nonzero;stroke:none"
       aria-label="9"
       transform="matrix(1.3333333,0,0,1.3333333,651.224,232.5312)"
       clip-path="url(#clipPath65)" />
    <path
       id="path66"
       d="m 0.63180469,-1.9804313 c 0.2109375,1.4179688 1.12500001,2.2617188 2.41406251,2.2617188 0.9492187,0 1.7929687,-0.45703125 2.296875,-1.2421875 0.5273437,-0.8554688 0.7617187,-1.9101563 0.7617187,-3.4804688 0,-1.4648437 -0.2109375,-2.390625 -0.7148437,-3.1523437 -0.46875,-0.7148438 -1.21875,-1.078125 -2.15625,-1.078125 -1.6171875,0 -2.77734376,1.2070312 -2.77734376,2.8828125 0,1.6054687 1.07812496,2.7304687 2.61328126,2.7304687 0.8085937,0 1.40625,-0.2929687 1.9453125,-0.9492187 -0.011719,2.15625 -0.6796875,3.3515625 -1.8984375,3.3515625 -0.7382813,0 -1.2539063,-0.4804688 -1.4296875,-1.3242188 z M 3.2216484,-7.757775 c 0.984375,0 1.734375,0.8320312 1.734375,1.9453125 0,1.078125 -0.7265625,1.8164062 -1.7695312,1.8164062 -1.0195313,0 -1.6523438,-0.7148437 -1.6523438,-1.875 0,-1.0898437 0.703125,-1.8867187 1.6875,-1.8867187 z m 0,0"
       style="fill:#000000;fill-opacity:1;fill-rule:nonzero;stroke:none"
       aria-label="9"
       transform="matrix(1.3333333,0,0,1.3333333,651.224,232.5312)"
       clip-path="url(#clipPath67)" />
    <path
       id="path68"
       d="M 3.1054375,-6.1757438 V 3.75e-5 H 4.160125 v -8.671875 H 3.4687187 c -0.375,1.3242187 -0.609375,1.5117187 -2.25,1.7226562 v 0.7734375 z m 6.8701172,-2.4960937 c -0.796875,0 -1.5117188,0.3515625 -1.9570313,0.9492187 -0.5507812,0.7617188 -0.8320312,1.9101563 -0.8320312,3.5273438 0,2.9179687 0.9609375,4.4765625 2.7890625,4.4765625 1.7929683,0 2.7773433,-1.5585938 2.7773433,-4.40625 0,-1.6875 -0.257812,-2.8125 -0.820312,-3.5976563 -0.445313,-0.609375 -1.160156,-0.9492187 -1.9570313,-0.9492187 z m 0,0.9375 c 1.1367183,0 1.6992183,1.1601562 1.6992183,3.515625 0,2.4609375 -0.550781,3.62109375 -1.7226558,3.62109375 -1.125,0 -1.6875,-1.20703125 -1.6875,-3.58593755 0,-2.390625 0.5625,-3.5507812 1.7109375,-3.5507812 z m 0,0"
       style="fill:#000000;fill-opacity:1;fill-rule:nonzero;stroke:none"
       aria-label="10"
       transform="matrix(1.3333333,0,0,1.3333333,713.89067,232.5312)"
       clip-path="url(#clipPath69)" />
    <path
       id="path70"
       d="M 3.1054375,-6.1757438 V 3.75e-5 H 4.160125 v -8.671875 H 3.4687187 c -0.375,1.3242187 -0.609375,1.5117187 -2.25,1.7226562 v 0.7734375 z m 6.8701172,-2.4960937 c -0.796875,0 -1.5117188,0.3515625 -1.9570313,0.9492187 -0.5507812,0.7617188 -0.8320312,1.9101563 -0.8320312,3.5273438 0,2.9179687 0.9609375,4.4765625 2.7890625,4.4765625 1.7929683,0 2.7773433,-1.5585938 2.7773433,-4.40625 0,-1.6875 -0.257812,-2.8125 -0.820312,-3.5976563 -0.445313,-0.609375 -1.160156,-0.9492187 -1.9570313,-0.9492187 z m 0,0.9375 c 1.1367183,0 1.6992183,1.1601562 1.6992183,3.515625 0,2.4609375 -0.550781,3.62109375 -1.7226558,3.62109375 -1.125,0 -1.6875,-1.20703125 -1.6875,-3.58593755 0,-2.390625 0.5625,-3.5507812 1.7109375,-3.5507812 z m 0,0"
       style="fill:#000000;fill-opacity:1;fill-rule:nonzero;stroke:none"
       aria-label="10"
       transform="matrix(1.3333333,0,0,1.3333333,713.89067,232.5312)"
       clip-path="url(#clipPath71)" />
    <path
       id="path72"
       d="M 3.1064141,-6.1757438 V 3.75e-5 h 1.0546875 v -8.671875 H 3.4696953 c -0.375,1.3242187 -0.609375,1.5117187 -2.25,1.7226562 v 0.7734375 z m 6.6708984,0 V 3.75e-5 H 10.832 v -8.671875 h -0.691406 c -0.3750003,1.3242187 -0.6093753,1.5117187 -2.2500003,1.7226562 v 0.7734375 z m 0,0"
       style="fill:#000000;fill-opacity:1;fill-rule:nonzero;stroke:none"
       aria-label="11"
       transform="matrix(1.3333333,0,0,1.3333333,780.55733,232.5312)"
       clip-path="url(#clipPath73)" />
    <path
       id="path74"
       d="M 3.1064141,-6.1757438 V 3.75e-5 h 1.0546875 v -8.671875 H 3.4696953 c -0.375,1.3242187 -0.609375,1.5117187 -2.25,1.7226562 v 0.7734375 z m 6.6708984,0 V 3.75e-5 H 10.832 v -8.671875 h -0.691406 c -0.3750003,1.3242187 -0.6093753,1.5117187 -2.2500003,1.7226562 v 0.7734375 z m 0,0"
       style="fill:#000000;fill-opacity:1;fill-rule:nonzero;stroke:none"
       aria-label="11"
       transform="matrix(1.3333333,0,0,1.3333333,780.55733,232.5312)"
       clip-path="url(#clipPath75)" />
    <path
       id="path96"
       d="M 3.410125,-3.7372672 H 0.55075 v 0.8554688 h 2.859375 z m 6.65625,2.6953125 H 5.5898125 C 5.6952812,-1.7685172 6.082,-2.2138297 7.1249687,-2.8583609 L 8.332,-3.5263297 c 1.1835937,-0.65625 1.792969,-1.546875 1.792969,-2.6132812 0,-0.7265625 -0.2812503,-1.3945313 -0.7851565,-1.8632813 -0.5039063,-0.4570312 -1.1367188,-0.6679687 -1.9335938,-0.6679687 -1.078125,0 -1.8867187,0.375 -2.3554687,1.125 -0.2929688,0.4570312 -0.4335938,0.9960937 -0.4570313,1.875 h 1.0546875 c 0.035156,-0.5976563 0.1171875,-0.9375 0.2578125,-1.2304688 0.2695313,-0.5273437 0.8203125,-0.8554687 1.4648438,-0.8554687 0.9609375,0 1.6757812,0.703125 1.6757812,1.640625 0,0.6914062 -0.3984375,1.2890625 -1.1484375,1.7226562 l -1.1015625,0.65625 c -1.78125,1.0195313 -2.296875,1.828125 -2.390625,3.72656251 h 5.6601563 z m 0,0"
       style="fill:#000000;fill-opacity:1;fill-rule:nonzero;stroke:none"
       aria-label="-2"
       transform="matrix(1.3333333,0,0,1.3333333,29.890667,351.19787)"
       clip-path="url(#clipPath97)" />
    <path
       id="path98"
       d="M 3.410125,-3.7372672 H 0.55075 v 0.8554688 h 2.859375 z m 6.65625,2.6953125 H 5.5898125 C 5.6952812,-1.7685172 6.082,-2.2138297 7.1249687,-2.8583609 L 8.332,-3.5263297 c 1.1835937,-0.65625 1.792969,-1.546875 1.792969,-2.6132812 0,-0.7265625 -0.2812503,-1.3945313 -0.7851565,-1.8632813 -0.5039063,-0.4570312 -1.1367188,-0.6679687 -1.9335938,-0.6679687 -1.078125,0 -1.8867187,0.375 -2.3554687,1.125 -0.2929688,0.4570312 -0.4335938,0.9960937 -0.4570313,1.875 h 1.0546875 c 0.035156,-0.5976563 0.1171875,-0.9375 0.2578125,-1.2304688 0.2695313,-0.5273437 0.8203125,-0.8554687 1.4648438,-0.8554687 0.9609375,0 1.6757812,0.703125 1.6757812,1.640625 0,0.6914062 -0.3984375,1.2890625 -1.1484375,1.7226562 l -1.1015625,0.65625 c -1.78125,1.0195313 -2.296875,1.828125 -2.390625,3.72656251 h 5.6601563 z m 0,0"
       style="fill:#000000;fill-opacity:1;fill-rule:nonzero;stroke:none"
       aria-label="-2"
       transform="matrix(1.3333333,0,0,1.3333333,29.890667,351.19787)"
       clip-path="url(#clipPath99)" />
    <path
       id="path100"
       d="M 3.410125,-3.7382438 H 0.55075 v 0.8554688 h 2.859375 z m 3.6914062,-2.4375 V 3.75e-5 h 1.0546875 v -8.671875 H 7.4648125 c -0.375,1.3242187 -0.609375,1.5117187 -2.25,1.7226562 v 0.7734375 z m 0,0"
       style="fill:#000000;fill-opacity:1;fill-rule:nonzero;stroke:none"
       aria-label="-1"
       transform="matrix(1.3333333,0,0,1.3333333,29.890667,284.5312)"
       clip-path="url(#clipPath101)" />
    <path
       id="path102"
       d="M 3.410125,-3.7382438 H 0.55075 v 0.8554688 h 2.859375 z m 3.6914062,-2.4375 V 3.75e-5 h 1.0546875 v -8.671875 H 7.4648125 c -0.375,1.3242187 -0.609375,1.5117187 -2.25,1.7226562 v 0.7734375 z m 0,0"
       style="fill:#000000;fill-opacity:1;fill-rule:nonzero;stroke:none"
       aria-label="-1"
       transform="matrix(1.3333333,0,0,1.3333333,29.890667,284.5312)"
       clip-path="url(#clipPath103)" />
    <path
       id="path104"
       d="M 3.1044609,-6.1747672 V 0.00101406 H 4.1591484 V -8.6708609 H 3.4677422 c -0.375,1.3242187 -0.609375,1.5117187 -2.25,1.7226562 v 0.7734375 z m 0,0"
       style="fill:#000000;fill-opacity:1;fill-rule:nonzero;stroke:none"
       aria-label="1"
       transform="matrix(1.3333333,0,0,1.3333333,35.224,151.19787)"
       clip-path="url(#clipPath105)" />
    <path
       id="path106"
       d="M 3.1044609,-6.1747672 V 0.00101406 H 4.1591484 V -8.6708609 H 3.4677422 c -0.375,1.3242187 -0.609375,1.5117187 -2.25,1.7226562 v 0.7734375 z m 0,0"
       style="fill:#000000;fill-opacity:1;fill-rule:nonzero;stroke:none"
       aria-label="1"
       transform="matrix(1.3333333,0,0,1.3333333,35.224,151.19787)"
       clip-path="url(#clipPath107)" />
    <path
       id="path108"
       d="M 6.0693047,-1.0429313 H 1.5927422 c 0.1054687,-0.7265625 0.4921875,-1.171875 1.5351562,-1.8164062 l 1.2070313,-0.6679688 c 1.1835937,-0.65625 1.7929687,-1.546875 1.7929687,-2.6132812 0,-0.7265625 -0.28125,-1.3945313 -0.7851562,-1.8632813 C 4.8388359,-8.4609 4.2060234,-8.6718375 3.4091484,-8.6718375 c -1.078125,0 -1.8867187,0.375 -2.3554687,1.125 -0.29296876,0.4570312 -0.43359376,0.9960937 -0.45703126,1.875 H 1.6513359 c 0.035156,-0.5976563 0.1171875,-0.9375 0.2578125,-1.2304688 0.2695313,-0.5273437 0.8203125,-0.8554687 1.4648438,-0.8554687 0.9609375,0 1.6757812,0.703125 1.6757812,1.640625 0,0.6914062 -0.3984375,1.2890625 -1.1484375,1.7226562 l -1.1015625,0.65625 c -1.78125,1.0195313 -2.29687496,1.828125 -2.39062496,3.72656255 H 6.0693047 Z m 0,0"
       style="fill:#000000;fill-opacity:1;fill-rule:nonzero;stroke:none"
       aria-label="2"
       transform="matrix(1.3333333,0,0,1.3333333,35.224,84.5312)"
       clip-path="url(#clipPath109)" />
    <path
       id="path110"
       d="M 6.0693047,-1.0429313 H 1.5927422 c 0.1054687,-0.7265625 0.4921875,-1.171875 1.5351562,-1.8164062 l 1.2070313,-0.6679688 c 1.1835937,-0.65625 1.7929687,-1.546875 1.7929687,-2.6132812 0,-0.7265625 -0.28125,-1.3945313 -0.7851562,-1.8632813 C 4.8388359,-8.4609 4.2060234,-8.6718375 3.4091484,-8.6718375 c -1.078125,0 -1.8867187,0.375 -2.3554687,1.125 -0.29296876,0.4570312 -0.43359376,0.9960937 -0.45703126,1.875 H 1.6513359 c 0.035156,-0.5976563 0.1171875,-0.9375 0.2578125,-1.2304688 0.2695313,-0.5273437 0.8203125,-0.8554687 1.4648438,-0.8554687 0.9609375,0 1.6757812,0.703125 1.6757812,1.640625 0,0.6914062 -0.3984375,1.2890625 -1.1484375,1.7226562 l -1.1015625,0.65625 c -1.78125,1.0195313 -2.29687496,1.828125 -2.39062496,3.72656255 H 6.0693047 Z m 0,0"
       style="fill:#000000;fill-opacity:1;fill-rule:nonzero;stroke:none"
       aria-label="2"
       transform="matrix(1.3333333,0,0,1.3333333,35.224,84.5312)"
       clip-path="url(#clipPath111)" />
    <path
       id="path112"
       d="m 2.6474297,-3.9970328 h 0.5742187 c 1.1601563,0 1.7695313,0.5390625 1.7695313,1.5820312 0,1.0898438 -0.65625,1.75781254 -1.7578125,1.75781254 -1.1601563,0 -1.7226563,-0.58593754 -1.7929688,-1.86328124 H 0.38571094 c 0.046875,0.6914062 0.1640625,1.1484375 0.375,1.53515624 0.43359376,0.84375 1.26562496,1.265625 2.42578126,1.265625 1.7578125,0 2.8828125,-1.06640625 2.8828125,-2.70703124 0,-1.1015625 -0.421875,-1.6992188 -1.4414063,-2.0625 0.796875,-0.328125 1.1953125,-0.9257813 1.1953125,-1.8046875 0,-1.4882813 -0.9726562,-2.3789063 -2.6015625,-2.3789063 -1.7109375,0 -2.62499996,0.9609375 -2.66015621,2.7890625 H 1.6161797 c 0.011719,-0.5273437 0.058594,-0.8203125 0.1992187,-1.0898437 0.234375,-0.4921875 0.7617188,-0.7851563 1.4179688,-0.7851563 0.9375,0 1.5,0.5742188 1.5,1.5 0,0.6210938 -0.2109375,0.984375 -0.6796875,1.1953125 -0.28125,0.1171875 -0.6679688,0.1640625 -1.40625,0.1757813 z m 0,0"
       style="fill:#000000;fill-opacity:1;fill-rule:nonzero;stroke:none"
       aria-label="3"
       transform="matrix(1.3333333,0,0,1.3333333,35.224,17.864533)"
       clip-path="url(#clipPath113)" />
    <path
       id="path114"
       d="m 2.6474297,-3.9970328 h 0.5742187 c 1.1601563,0 1.7695313,0.5390625 1.7695313,1.5820312 0,1.0898438 -0.65625,1.75781254 -1.7578125,1.75781254 -1.1601563,0 -1.7226563,-0.58593754 -1.7929688,-1.86328124 H 0.38571094 c 0.046875,0.6914062 0.1640625,1.1484375 0.375,1.53515624 0.43359376,0.84375 1.26562496,1.265625 2.42578126,1.265625 1.7578125,0 2.8828125,-1.06640625 2.8828125,-2.70703124 0,-1.1015625 -0.421875,-1.6992188 -1.4414063,-2.0625 0.796875,-0.328125 1.1953125,-0.9257813 1.1953125,-1.8046875 0,-1.4882813 -0.9726562,-2.3789063 -2.6015625,-2.3789063 -1.7109375,0 -2.62499996,0.9609375 -2.66015621,2.7890625 H 1.6161797 c 0.011719,-0.5273437 0.058594,-0.8203125 0.1992187,-1.0898437 0.234375,-0.4921875 0.7617188,-0.7851563 1.4179688,-0.7851563 0.9375,0 1.5,0.5742188 1.5,1.5 0,0.6210938 -0.2109375,0.984375 -0.6796875,1.1953125 -0.28125,0.1171875 -0.6679688,0.1640625 -1.40625,0.1757813 z m 0,0"
       style="fill:#000000;fill-opacity:1;fill-rule:nonzero;stroke:none"
       aria-label="3"
       transform="matrix(1.3333333,0,0,1.3333333,35.224,17.864533)"
       clip-path="url(#clipPath115)" />
    <path
       id="path124"
       d="m 3.3036797,-8.6718375 c -0.796875,0 -1.5117188,0.3515625 -1.9570313,0.9492187 -0.55078121,0.7617188 -0.83203121,1.9101563 -0.83203121,3.5273438 0,2.9179687 0.96093751,4.4765625 2.78906251,4.4765625 1.7929687,0 2.7773437,-1.5585938 2.7773437,-4.40625 0,-1.6875 -0.2578125,-2.8125 -0.8203125,-3.5976563 -0.4453125,-0.609375 -1.1601562,-0.9492187 -1.9570312,-0.9492187 z m 0,0.9375 c 1.1367187,0 1.6992187,1.1601562 1.6992187,3.515625 0,2.4609375 -0.5507812,3.62109375 -1.7226562,3.62109375 -1.125,0 -1.6875,-1.20703125 -1.6875,-3.58593755 0,-2.390625 0.5625,-3.5507812 1.7109375,-3.5507812 z m 0,0"
       style="fill:#000000;fill-opacity:1;fill-rule:nonzero;stroke:none"
       aria-label="0"
       transform="matrix(1.3333333,0,0,1.3333333,35.224,232.5312)"
       clip-path="url(#clipPath125)" />
    <path
       id="path126"
       d="m 3.3036797,-8.6718375 c -0.796875,0 -1.5117188,0.3515625 -1.9570313,0.9492187 -0.55078121,0.7617188 -0.83203121,1.9101563 -0.83203121,3.5273438 0,2.9179687 0.96093751,4.4765625 2.78906251,4.4765625 1.7929687,0 2.7773437,-1.5585938 2.7773437,-4.40625 0,-1.6875 -0.2578125,-2.8125 -0.8203125,-3.5976563 -0.4453125,-0.609375 -1.1601562,-0.9492187 -1.9570312,-0.9492187 z m 0,0.9375 c 1.1367187,0 1.6992187,1.1601562 1.6992187,3.515625 0,2.4609375 -0.5507812,3.62109375 -1.7226562,3.62109375 -1.125,0 -1.6875,-1.20703125 -1.6875,-3.58593755 0,-2.390625 0.5625,-3.5507812 1.7109375,-3.5507812 z m 0,0"
       style="fill:#000000;fill-opacity:1;fill-rule:nonzero;stroke:none"
       aria-label="0"
       transform="matrix(1.3333333,0,0,1.3333333,35.224,232.5312)"
       clip-path="url(#clipPath127)" />
    <path
       id="path128"
       d="m 141.73764,375.90455 50,50"
       style="fill:none;stroke:#0000ff;stroke-width:3;stroke-linecap:round;stroke-linejoin:round;stroke-miterlimit:10;stroke-dasharray:none;stroke-opacity:0.698039"
       transform="matrix(1.3333333,0,0,1.3333333,-134.10933,-422.13547)"
       clip-path="url(#clipPath129)" />
    <path
       id="path130"
       d="m 241.73764,375.90455 -50,50"
       style="fill:none;stroke:#0000ff;stroke-width:3;stroke-linecap:round;stroke-linejoin:round;stroke-miterlimit:10;stroke-dasharray:none;stroke-opacity:0.698039"
       transform="matrix(1.3333333,0,0,1.3333333,-134.10933,-422.13547)"
       clip-path="url(#clipPath131)" />
    <path
       id="path132"
       d="m 241.73764,375.90455 50,50"
       style="fill:none;stroke:#0000ff;stroke-width:3;stroke-linecap:round;stroke-linejoin:round;stroke-miterlimit:10;stroke-dasharray:none;stroke-opacity:0.698039"
       transform="matrix(1.3333333,0,0,1.3333333,-134.10933,-422.13547)"
       clip-path="url(#clipPath133)" />
    <path
       id="path134"
       d="m 291.73764,425.90455 50,50"
       style="fill:none;stroke:#0000ff;stroke-width:3;stroke-linecap:round;stroke-linejoin:round;stroke-miterlimit:10;stroke-dasharray:none;stroke-opacity:0.698039"
       transform="matrix(1.3333333,0,0,1.3333333,-134.10933,-422.13547)"
       clip-path="url(#clipPath135)" />
    <path
       id="path136"
       d="m 341.73764,475.90455 50,50"
       style="fill:none;stroke:#0000ff;stroke-width:3;stroke-linecap:round;stroke-linejoin:round;stroke-miterlimit:10;stroke-dasharray:none;stroke-opacity:0.698039"
       transform="matrix(1.3333333,0,0,1.3333333,-134.10933,-422.13547)"
       clip-path="url(#clipPath137)" />
    <path
       id="path138"
       d="m 391.73764,525.90455 50,50"
       style="fill:none;stroke:#0000ff;stroke-width:3;stroke-linecap:round;stroke-linejoin:round;stroke-miterlimit:10;stroke-dasharray:none;stroke-opacity:0.698039"
       transform="matrix(1.3333333,0,0,1.3333333,-134.10933,-422.13547)"
       clip-path="url(#clipPath139)" />
    <path
       id="path140"
       d="m 441.73764,575.90455 50,-50"
       style="fill:none;stroke:#0000ff;stroke-width:3;stroke-linecap:round;stroke-linejoin:round;stroke-miterlimit:10;stroke-dasharray:none;stroke-opacity:0.698039"
       transform="matrix(1.3333333,0,0,1.3333333,-134.10933,-422.13547)"
       clip-path="url(#clipPath141)" />
    <path
       id="path142"
       d="m 491.73764,525.90455 50,-50"
       style="fill:none;stroke:#0000ff;stroke-width:3;stroke-linecap:round;stroke-linejoin:round;stroke-miterlimit:10;stroke-dasharray:none;stroke-opacity:0.698039"
       transform="matrix(1.3333333,0,0,1.3333333,-134.10933,-422.13547)"
       clip-path="url(#clipPath143)" />
    <path
       id="path144"
       d="m 541.73764,475.90455 50,-50"
       style="fill:none;stroke:#0000ff;stroke-width:3;stroke-linecap:round;stroke-linejoin:round;stroke-miterlimit:10;stroke-dasharray:none;stroke-opacity:0.698039"
       transform="matrix(1.3333333,0,0,1.3333333,-134.10933,-422.13547)"
       clip-path="url(#clipPath145)" />
    <path
       id="path146"
       d="m 591.73764,425.90455 50,-50"
       style="fill:none;stroke:#0000ff;stroke-width:3;stroke-linecap:round;stroke-linejoin:round;stroke-miterlimit:10;stroke-dasharray:none;stroke-opacity:0.698039"
       transform="matrix(1.3333333,0,0,1.3333333,-134.10933,-422.13547)"
       clip-path="url(#clipPath147)" />
    <path
       id="path148"
       d="m 641.73764,375.90455 50,50"
       style="fill:none;stroke:#0000ff;stroke-width:3;stroke-linecap:round;stroke-linejoin:round;stroke-miterlimit:10;stroke-dasharray:none;stroke-opacity:0.698039"
       transform="matrix(1.3333333,0,0,1.3333333,-134.10933,-422.13547)"
       clip-path="url(#clipPath149)" />
    <path
       id="path150"
       d="m 341.73764,475.90455 50,-50"
       style="fill:none;stroke:#ff0000;stroke-width:5;stroke-linecap:butt;stroke-linejoin:round;stroke-miterlimit:10;stroke-dasharray:13, 8;stroke-dashoffset:0;stroke-opacity:0.698039"
       transform="matrix(1.3333333,0,0,1.3333333,-134.10933,-422.13547)"
       clip-path="url(#clipPath151)" />
    <path
       id="path152"
       d="m 391.73764,425.90455 50,-50"
       style="fill:none;stroke:#ff0000;stroke-width:5;stroke-linecap:butt;stroke-linejoin:round;stroke-miterlimit:10;stroke-dasharray:13, 8;stroke-dashoffset:0;stroke-opacity:0.698039"
       transform="matrix(1.3333333,0,0,1.3333333,-134.10933,-422.13547)"
       clip-path="url(#clipPath153)" />
    <path
       id="path154"
       d="m 441.73764,375.90455 50,50"
       style="fill:none;stroke:#ff0000;stroke-width:5;stroke-linecap:butt;stroke-linejoin:round;stroke-miterlimit:10;stroke-dasharray:13, 8;stroke-dashoffset:0;stroke-opacity:0.698039"
       transform="matrix(1.3333333,0,0,1.3333333,-134.10933,-422.13547)"
       clip-path="url(#clipPath155)" />
    <path
       id="path156"
       d="m 491.73764,425.90455 50,50"
       style="fill:none;stroke:#ff0000;stroke-width:5;stroke-linecap:butt;stroke-linejoin:round;stroke-miterlimit:10;stroke-dasharray:13, 8;stroke-dashoffset:0;stroke-opacity:0.698039"
       transform="matrix(1.3333333,0,0,1.3333333,-134.10933,-422.13547)"
       clip-path="url(#clipPath157)" />
    <path
       id="path158"
       d="m 541.73764,475.90455 50,50"
       style="fill:none;stroke:#ff0000;stroke-width:5;stroke-linecap:butt;stroke-linejoin:round;stroke-miterlimit:10;stroke-dasharray:13, 8;stroke-dashoffset:0;stroke-opacity:0.698039"
       transform="matrix(1.3333333,0,0,1.3333333,-134.10933,-422.13547)"
       clip-path="url(#clipPath159)" />
    <path
       id="path160"
       d="m 591.73764,525.90455 50,50"
       style="fill:none;stroke:#ff0000;stroke-width:5;stroke-linecap:butt;stroke-linejoin:round;stroke-miterlimit:10;stroke-dasharray:13, 8;stroke-dashoffset:0;stroke-opacity:0.698039"
       transform="matrix(1.3333333,0,0,1.3333333,-134.10933,-422.13547)"
       clip-path="url(#clipPath161)" />
    <path
       id="path162"
       d="m 641.73764,575.90455 50,-50"
       style="fill:none;stroke:#ff0000;stroke-width:5;stroke-linecap:butt;stroke-linejoin:round;stroke-miterlimit:10;stroke-dasharray:13, 8;stroke-dashoffset:0;stroke-opacity:0.698039"
       transform="matrix(1.3333333,0,0,1.3333333,-134.10933,-422.13547)"
       clip-path="url(#clipPath163)" />
    <path
       id="path164"
       d="m 191.73764,425.40455 50,-50"
       style="fill:none;stroke:#ff0000;stroke-width:5;stroke-linecap:butt;stroke-linejoin:round;stroke-miterlimit:10;stroke-dasharray:13, 8;stroke-dashoffset:0;stroke-opacity:0.698039"
       transform="matrix(1.3333333,0,0,1.3333333,-134.10933,-422.13547)"
       clip-path="url(#clipPath165)" />
    <path
       id="path166"
       d="m 241.73764,375.40455 50,50"
       style="fill:none;stroke:#ff0000;stroke-width:5;stroke-linecap:butt;stroke-linejoin:round;stroke-miterlimit:10;stroke-dasharray:13, 8;stroke-dashoffset:0;stroke-opacity:0.698039"
       transform="matrix(1.3333333,0,0,1.3333333,-134.10933,-422.13547)"
       clip-path="url(#clipPath167)" />
    <path
       id="path168"
       d="m 291.73764,425.40455 50,50.5"
       style="fill:none;stroke:#ff0000;stroke-width:5;stroke-linecap:butt;stroke-linejoin:round;stroke-miterlimit:10;stroke-dasharray:13, 8;stroke-dashoffset:0;stroke-opacity:0.698039"
       transform="matrix(1.3333333,0,0,1.3333333,-134.10933,-422.13547)"
       clip-path="url(#clipPath169)" />
    <path
       id="path170"
       d="m 141.73764,375.40455 50,50"
       style="fill:none;stroke:#ff0000;stroke-width:5;stroke-linecap:butt;stroke-linejoin:round;stroke-miterlimit:10;stroke-dasharray:13, 8;stroke-dashoffset:0;stroke-opacity:0.698039"
       transform="matrix(1.3333333,0,0,1.3333333,-134.10933,-422.13547)"
       clip-path="url(#clipPath171)" />
    <path
       id="path172"
       d="m 146.73764,375.90455 c 0,2.76142 -2.23858,5 -5,5 -2.76143,0 -5,-2.23858 -5,-5 0,-2.76143 2.23857,-5 5,-5 2.76142,0 5,2.23857 5,5 z"
       style="fill:#000000;fill-opacity:1;fill-rule:nonzero;stroke:#000000;stroke-width:1;stroke-linecap:round;stroke-linejoin:round;stroke-miterlimit:10;stroke-dasharray:none;stroke-opacity:1"
       transform="matrix(1.3333333,0,0,1.3333333,-134.10933,-422.13547)"
       clip-path="url(#clipPath173)" />
    <path
       id="path174"
       d="m 8.5556328,-0.78609531 c -0.140625,0.0351563 -0.1992187,0.0351563 -0.28125,0.0351563 -0.46875,0 -0.7265625,-0.24609375 -0.7265625,-0.65624999 v -4.9335938 c 0,-1.4765625 -1.0898437,-2.2851563 -3.1523437,-2.2851563 -1.2304688,0 -2.203125,0.3515625 -2.7773438,0.984375 -0.3867187,0.421875 -0.5507812,0.9023438 -0.5742187,1.734375 h 1.3359375 c 0.1171875,-1.0195312 0.7265625,-1.4882812 1.96875,-1.4882812 1.21875,0 1.875,0.4570312 1.875,1.2539062 v 0.3515625 c -0.011719,0.5742188 -0.3046875,0.7851563 -1.3945313,0.9257813 -1.8867187,0.2460937 -2.1679687,0.3046875 -2.6835937,0.515625 -0.9726563,0.4101562 -1.47656254,1.1484375 -1.47656254,2.2382812 0,1.51171884 1.05468754,2.47265634 2.75390624,2.47265634 1.0546875,0 1.9101563,-0.3632812525 2.8476563,-1.23046875 0.09375,0.8671874975 0.515625,1.23046875 1.3710937,1.23046875 0.2929688,0 0.46875,-0.0234375 0.9140625,-0.140625 z M 6.2236016,-2.6376578 c 0,0.4453125 -0.1289063,0.7148437 -0.5273438,1.0898437 -0.5390625,0.4921875 -1.1953125,0.75000004 -1.9804687,0.75000004 -1.0429688,0 -1.6523438,-0.50390624 -1.6523438,-1.34765624 0,-0.8789063 0.5742188,-1.3242188 2.015625,-1.5351563 1.4296875,-0.1875 1.6992188,-0.2578125 2.1445313,-0.46875 z m 0,0"
       style="fill:#000000;fill-opacity:1;fill-rule:nonzero;stroke:none"
       aria-label="a"
       transform="matrix(1.3333333,0,0,1.3333333,60.557333,65.864533)"
       clip-path="url(#clipPath175)" />
    <path
       id="path176"
       d="m 8.5556328,-0.78609531 c -0.140625,0.0351563 -0.1992187,0.0351563 -0.28125,0.0351563 -0.46875,0 -0.7265625,-0.24609375 -0.7265625,-0.65624999 v -4.9335938 c 0,-1.4765625 -1.0898437,-2.2851563 -3.1523437,-2.2851563 -1.2304688,0 -2.203125,0.3515625 -2.7773438,0.984375 -0.3867187,0.421875 -0.5507812,0.9023438 -0.5742187,1.734375 h 1.3359375 c 0.1171875,-1.0195312 0.7265625,-1.4882812 1.96875,-1.4882812 1.21875,0 1.875,0.4570312 1.875,1.2539062 v 0.3515625 c -0.011719,0.5742188 -0.3046875,0.7851563 -1.3945313,0.9257813 -1.8867187,0.2460937 -2.1679687,0.3046875 -2.6835937,0.515625 -0.9726563,0.4101562 -1.47656254,1.1484375 -1.47656254,2.2382812 0,1.51171884 1.05468754,2.47265634 2.75390624,2.47265634 1.0546875,0 1.9101563,-0.3632812525 2.8476563,-1.23046875 0.09375,0.8671874975 0.515625,1.23046875 1.3710937,1.23046875 0.2929688,0 0.46875,-0.0234375 0.9140625,-0.140625 z M 6.2236016,-2.6376578 c 0,0.4453125 -0.1289063,0.7148437 -0.5273438,1.0898437 -0.5390625,0.4921875 -1.1953125,0.75000004 -1.9804687,0.75000004 -1.0429688,0 -1.6523438,-0.50390624 -1.6523438,-1.34765624 0,-0.8789063 0.5742188,-1.3242188 2.015625,-1.5351563 1.4296875,-0.1875 1.6992188,-0.2578125 2.1445313,-0.46875 z m 0,0"
       style="fill:#000000;fill-opacity:1;fill-rule:nonzero;stroke:none"
       aria-label="a"
       transform="matrix(1.3333333,0,0,1.3333333,60.557333,65.864533)"
       clip-path="url(#clipPath177)" />
    <path
       id="path178"
       d="m 196.73764,425.90455 c 0,2.76142 -2.23858,5 -5,5 -2.76143,0 -5,-2.23858 -5,-5 0,-2.76143 2.23857,-5 5,-5 2.76142,0 5,2.23857 5,5 z"
       style="fill:#4d4dff;fill-opacity:1;fill-rule:nonzero;stroke:#000000;stroke-width:1;stroke-linecap:round;stroke-linejoin:round;stroke-miterlimit:10;stroke-dasharray:none;stroke-opacity:1"
       transform="matrix(1.3333333,0,0,1.3333333,-134.10933,-422.13547)"
       clip-path="url(#clipPath179)" />
    <path
       id="path180"
       d="m 246.73764,375.90455 c 0,2.76142 -2.23858,5 -5,5 -2.76143,0 -5,-2.23858 -5,-5 0,-2.76143 2.23857,-5 5,-5 2.76142,0 5,2.23857 5,5 z"
       style="fill:#4d4dff;fill-opacity:1;fill-rule:nonzero;stroke:#000000;stroke-width:1;stroke-linecap:round;stroke-linejoin:round;stroke-miterlimit:10;stroke-dasharray:none;stroke-opacity:1"
       transform="matrix(1.3333333,0,0,1.3333333,-134.10933,-422.13547)"
       clip-path="url(#clipPath181)" />
    <path
       id="path182"
       d="m 296.73764,425.90455 c 0,2.76142 -2.23858,5 -5,5 -2.76143,0 -5,-2.23858 -5,-5 0,-2.76143 2.23857,-5 5,-5 2.76142,0 5,2.23857 5,5 z"
       style="fill:#4d4dff;fill-opacity:1;fill-rule:nonzero;stroke:#000000;stroke-width:1;stroke-linecap:round;stroke-linejoin:round;stroke-miterlimit:10;stroke-dasharray:none;stroke-opacity:1"
       transform="matrix(1.3333333,0,0,1.3333333,-134.10933,-422.13547)"
       clip-path="url(#clipPath183)" />
    <path
       id="path184"
       d="m 346.73764,475.90455 c 0,2.76142 -2.23858,5 -5,5 -2.76143,0 -5,-2.23858 -5,-5 0,-2.76143 2.23857,-5 5,-5 2.76142,0 5,2.23857 5,5 z"
       style="fill:#ff0000;fill-opacity:1;fill-rule:nonzero;stroke:#000000;stroke-width:1;stroke-linecap:round;stroke-linejoin:round;stroke-miterlimit:10;stroke-dasharray:none;stroke-opacity:1"
       transform="matrix(1.3333333,0,0,1.3333333,-134.10933,-422.13547)"
       clip-path="url(#clipPath185)" />
    <path
       id="path186"
       d="m 396.73764,525.90455 c 0,2.76142 -2.23858,5 -5,5 -2.76143,0 -5,-2.23858 -5,-5 0,-2.76143 2.23857,-5 5,-5 2.76142,0 5,2.23857 5,5 z"
       style="fill:#4d4dff;fill-opacity:1;fill-rule:nonzero;stroke:#000000;stroke-width:1;stroke-linecap:round;stroke-linejoin:round;stroke-miterlimit:10;stroke-dasharray:none;stroke-opacity:1"
       transform="matrix(1.3333333,0,0,1.3333333,-134.10933,-422.13547)"
       clip-path="url(#clipPath187)" />
    <path
       id="path188"
       d="m 446.73764,575.90455 c 0,2.76142 -2.23858,5 -5,5 -2.76143,0 -5,-2.23858 -5,-5 0,-2.76143 2.23857,-5 5,-5 2.76142,0 5,2.23857 5,5 z"
       style="fill:#4d4dff;fill-opacity:1;fill-rule:nonzero;stroke:#000000;stroke-width:1;stroke-linecap:round;stroke-linejoin:round;stroke-miterlimit:10;stroke-dasharray:none;stroke-opacity:1"
       transform="matrix(1.3333333,0,0,1.3333333,-134.10933,-422.13547)"
       clip-path="url(#clipPath189)" />
    <path
       id="path190"
       d="m 496.73764,525.90455 c 0,2.76142 -2.23858,5 -5,5 -2.76143,0 -5,-2.23858 -5,-5 0,-2.76143 2.23857,-5 5,-5 2.76142,0 5,2.23857 5,5 z"
       style="fill:#4d4dff;fill-opacity:1;fill-rule:nonzero;stroke:#000000;stroke-width:1;stroke-linecap:round;stroke-linejoin:round;stroke-miterlimit:10;stroke-dasharray:none;stroke-opacity:1"
       transform="matrix(1.3333333,0,0,1.3333333,-134.10933,-422.13547)"
       clip-path="url(#clipPath191)" />
    <path
       id="path192"
       d="m 546.73764,475.90455 c 0,2.76142 -2.23858,5 -5,5 -2.76143,0 -5,-2.23858 -5,-5 0,-2.76143 2.23857,-5 5,-5 2.76142,0 5,2.23857 5,5 z"
       style="fill:#ff0000;fill-opacity:1;fill-rule:nonzero;stroke:#000000;stroke-width:1;stroke-linecap:round;stroke-linejoin:round;stroke-miterlimit:10;stroke-dasharray:none;stroke-opacity:1"
       transform="matrix(1.3333333,0,0,1.3333333,-134.10933,-422.13547)"
       clip-path="url(#clipPath193)" />
    <path
       id="path194"
       d="m 596.73764,425.90455 c 0,2.76142 -2.23858,5 -5,5 -2.76143,0 -5,-2.23858 -5,-5 0,-2.76143 2.23857,-5 5,-5 2.76142,0 5,2.23857 5,5 z"
       style="fill:#4d4dff;fill-opacity:1;fill-rule:nonzero;stroke:#000000;stroke-width:1;stroke-linecap:round;stroke-linejoin:round;stroke-miterlimit:10;stroke-dasharray:none;stroke-opacity:1"
       transform="matrix(1.3333333,0,0,1.3333333,-134.10933,-422.13547)"
       clip-path="url(#clipPath195)" />
    <path
       id="path196"
       d="m 646.73764,375.90455 c 0,2.76142 -2.23858,5 -5,5 -2.76143,0 -5,-2.23858 -5,-5 0,-2.76143 2.23857,-5 5,-5 2.76142,0 5,2.23857 5,5 z"
       style="fill:#4d4dff;fill-opacity:1;fill-rule:nonzero;stroke:#000000;stroke-width:1;stroke-linecap:round;stroke-linejoin:round;stroke-miterlimit:10;stroke-dasharray:none;stroke-opacity:1"
       transform="matrix(1.3333333,0,0,1.3333333,-134.10933,-422.13547)"
       clip-path="url(#clipPath197)" />
    <path
       id="path198"
       d="m 696.73764,425.90455 c 0,2.76142 -2.23858,5 -5,5 -2.76143,0 -5,-2.23858 -5,-5 0,-2.76143 2.23857,-5 5,-5 2.76142,0 5,2.23857 5,5 z"
       style="fill:#000000;fill-opacity:1;fill-rule:nonzero;stroke:#000000;stroke-width:1;stroke-linecap:round;stroke-linejoin:round;stroke-miterlimit:10;stroke-dasharray:none;stroke-opacity:1"
       transform="matrix(1.3333333,0,0,1.3333333,-134.10933,-422.13547)"
       clip-path="url(#clipPath199)" />
    <path
       id="path200"
       d="M 0.86715625,-11.660119 V 3.75e-5 H 2.0624687 V -1.0663688 C 2.707,-0.0937125 3.55075,0.36331875 4.722625,0.36331875 c 2.203125,0 3.6445312,-1.80468755 3.6445312,-4.58203125 0,-2.71875 -1.359375,-4.40625 -3.5859375,-4.40625 -1.1484375,0 -1.96875,0.4335937 -2.5898437,1.3828125 v -4.417969 z m 3.65624995,4.2890627 c 1.4882813,0 2.4492188,1.2890625 2.4492188,3.2929688 0,1.8984375 -0.984375,3.19921875 -2.4492188,3.19921875 -1.4179687,0 -2.3320312,-1.27734375 -2.3320312,-3.24609375 0,-1.96875 0.9140625,-3.2460938 2.3320312,-3.2460938 z m 0,0"
       style="fill:#000000;fill-opacity:1;fill-rule:nonzero;stroke:none"
       aria-label="b"
       transform="matrix(1.3333333,0,0,1.3333333,793.89067,132.5312)"
       clip-path="url(#clipPath201)" />
    <path
       id="path202"
       d="M 0.86715625,-11.660119 V 3.75e-5 H 2.0624687 V -1.0663688 C 2.707,-0.0937125 3.55075,0.36331875 4.722625,0.36331875 c 2.203125,0 3.6445312,-1.80468755 3.6445312,-4.58203125 0,-2.71875 -1.359375,-4.40625 -3.5859375,-4.40625 -1.1484375,0 -1.96875,0.4335937 -2.5898437,1.3828125 v -4.417969 z m 3.65624995,4.2890627 c 1.4882813,0 2.4492188,1.2890625 2.4492188,3.2929688 0,1.8984375 -0.984375,3.19921875 -2.4492188,3.19921875 -1.4179687,0 -2.3320312,-1.27734375 -2.3320312,-3.24609375 0,-1.96875 0.9140625,-3.2460938 2.3320312,-3.2460938 z m 0,0"
       style="fill:#000000;fill-opacity:1;fill-rule:nonzero;stroke:none"
       aria-label="b"
       transform="matrix(1.3333333,0,0,1.3333333,793.89067,132.5312)"
       clip-path="url(#clipPath203)" />
    <path
       id="path204"
       d="m 396.73764,425.90455 c 0,2.76142 -2.23858,5 -5,5 -2.76143,0 -5,-2.23858 -5,-5 0,-2.76143 2.23857,-5 5,-5 2.76142,0 5,2.23857 5,5 z"
       style="fill:#ff0000;fill-opacity:1;fill-rule:nonzero;stroke:#000000;stroke-width:1;stroke-linecap:round;stroke-linejoin:round;stroke-miterlimit:10;stroke-dasharray:none;stroke-opacity:1"
       transform="matrix(1.3333333,0,0,1.3333333,-134.10933,-422.13547)"
       clip-path="url(#clipPath205)" />
    <path
       id="path206"
       d="m 446.73764,375.90455 c 0,2.76142 -2.23858,5 -5,5 -2.76143,0 -5,-2.23858 -5,-5 0,-2.76143 2.23857,-5 5,-5 2.76142,0 5,2.23857 5,5 z"
       style="fill:#ff0000;fill-opacity:1;fill-rule:nonzero;stroke:#000000;stroke-width:1;stroke-linecap:round;stroke-linejoin:round;stroke-miterlimit:10;stroke-dasharray:none;stroke-opacity:1"
       transform="matrix(1.3333333,0,0,1.3333333,-134.10933,-422.13547)"
       clip-path="url(#clipPath207)" />
    <path
       id="path208"
       d="m 496.73764,425.90455 c 0,2.76142 -2.23858,5 -5,5 -2.76143,0 -5,-2.23858 -5,-5 0,-2.76143 2.23857,-5 5,-5 2.76142,0 5,2.23857 5,5 z"
       style="fill:#ff0000;fill-opacity:1;fill-rule:nonzero;stroke:#000000;stroke-width:1;stroke-linecap:round;stroke-linejoin:round;stroke-miterlimit:10;stroke-dasharray:none;stroke-opacity:1"
       transform="matrix(1.3333333,0,0,1.3333333,-134.10933,-422.13547)"
       clip-path="url(#clipPath209)" />
    <path
       id="path210"
       d="m 596.73764,525.90455 c 0,2.76142 -2.23858,5 -5,5 -2.76143,0 -5,-2.23858 -5,-5 0,-2.76143 2.23857,-5 5,-5 2.76142,0 5,2.23857 5,5 z"
       style="fill:#ff0000;fill-opacity:1;fill-rule:nonzero;stroke:#000000;stroke-width:1;stroke-linecap:round;stroke-linejoin:round;stroke-miterlimit:10;stroke-dasharray:none;stroke-opacity:1"
       transform="matrix(1.3333333,0,0,1.3333333,-134.10933,-422.13547)"
       clip-path="url(#clipPath211)" />
    <path
       id="path212"
       d="m 646.73764,575.90455 c 0,2.76142 -2.23858,5 -5,5 -2.76143,0 -5,-2.23858 -5,-5 0,-2.76143 2.23857,-5 5,-5 2.76142,0 5,2.23857 5,5 z"
       style="fill:#ff0000;fill-opacity:1;fill-rule:nonzero;stroke:#000000;stroke-width:1;stroke-linecap:round;stroke-linejoin:round;stroke-miterlimit:10;stroke-dasharray:none;stroke-opacity:1"
       transform="matrix(1.3333333,0,0,1.3333333,-134.10933,-422.13547)"
       clip-path="url(#clipPath213)" />
    <path
       id="path214"
       d="m 696.73764,525.90455 c 0,2.76142 -2.23858,5 -5,5 -2.76143,0 -5,-2.23858 -5,-5 0,-2.76143 2.23857,-5 5,-5 2.76142,0 5,2.23857 5,5 z"
       style="fill:#ff0000;fill-opacity:1;fill-rule:nonzero;stroke:#000000;stroke-width:1;stroke-linecap:round;stroke-linejoin:round;stroke-miterlimit:10;stroke-dasharray:none;stroke-opacity:1"
       transform="matrix(1.3333333,0,0,1.3333333,-134.10933,-422.13547)"
       clip-path="url(#clipPath215)" />
  </g>
</svg>
