<?xml version="1.0" encoding="UTF-8" standalone="no"?>
<!-- Uploaded to: SVG Repo, www.svgrepo.com, Generator: SVG Repo Mixer Tools -->

<svg
   version="1.1"
   id="_x32_"
   width="800px"
   height="800px"
   viewBox="0 0 512 512"
   xml:space="preserve"
   sodipodi:docname="coin-toss-4-svgrepo-com-blue.svg"
   inkscape:version="1.3.2 (1:1.3.2+202311252150+091e20ef0f)"
   xmlns:inkscape="http://www.inkscape.org/namespaces/inkscape"
   xmlns:sodipodi="http://sodipodi.sourceforge.net/DTD/sodipodi-0.dtd"
   xmlns="http://www.w3.org/2000/svg"
   xmlns:svg="http://www.w3.org/2000/svg"><defs
   id="defs4" /><sodipodi:namedview
   id="namedview4"
   pagecolor="#ffffff"
   bordercolor="#666666"
   borderopacity="1.0"
   inkscape:showpageshadow="2"
   inkscape:pageopacity="0.0"
   inkscape:pagecheckerboard="0"
   inkscape:deskcolor="#d1d1d1"
   inkscape:zoom="0.43321425"
   inkscape:cx="10.38747"
   inkscape:cy="126.95797"
   inkscape:window-width="3370"
   inkscape:window-height="1376"
   inkscape:window-x="70"
   inkscape:window-y="27"
   inkscape:window-maximized="1"
   inkscape:current-layer="g4" />
<style
   type="text/css"
   id="style1">
<![CDATA[
	.st0{fill:#000000;}
]]>
</style>
<g
   id="g4">
	<path
   class="st0"
   d="M405.835,328.689c-6.672,0-29.906,0-63.75,0c-27.219,0-32.438-4.578-32.438-11.906   c0-8.375,13.609-23.016,16.734-28.25c3.156-5.234,23.031-23.016,27.219-49.188c4.188-26.156-27.219-45-37.672-27.188   c-6.203,10.563-21.969,41.844-40.797,55.438c-34.969,25.25-63.859,80.188-100.25,80.188v118.406   c29.984,0,97.953,33.344,122.031,38.188c27.266,5.438,62.891,17.5,81.797-8.188c11.656-15.828,29.922-58.469,43.625-102.063   C457.117,360.721,433.102,328.689,405.835,328.689z"
   id="path1"
   style="fill:#084dff;fill-opacity:1" />
	<rect
   x="348.367"
   y="106.376"
   class="st0"
   width="7.484"
   height="61.281"
   id="rect1"
   style="fill:#084dff;fill-opacity:1" />
	<polygon
   class="st0"
   points="372.164,187.563 379.664,187.532 379.414,126.267 371.914,126.282  "
   id="polygon1"
   style="fill:#084dff;fill-opacity:1" />
	<path
   class="st0"
   d="M72.367,378.658v100.469c0,14.75,11.953,26.688,26.703,26.688h31.844c9.828,0,17.797-7.953,17.797-17.781   V351.971H99.07C84.32,351.971,72.367,363.908,72.367,378.658z"
   id="path2"
   style="fill:#084dff;fill-opacity:1" />
	
	<path
   class="st0"
   d="M344.304,87.673c13.813,12.031,30.594,19.203,44.891,19.203c9.625,0,17.438-3.141,22.641-9.094l11.406-13.078   c13.297-15.281,4.672-44.656-19.234-65.484C390.21,7.188,373.429,0.001,359.117,0.001c-9.625,0-17.453,3.156-22.625,9.094   l-11.406,13.078C311.773,37.454,320.398,66.845,344.304,87.673z M344.117,15.735c3.234-3.719,8.406-5.672,14.938-5.672   c11.75,0,26.422,6.422,38.297,16.75c9.453,8.25,16.563,18.266,20,28.219c3.375,9.688,2.75,17.859-1.75,23.016   c-3.234,3.734-8.406,5.688-14.953,5.688c-11.734,0-26.406-6.422-38.266-16.766C343.007,50.063,334.648,26.595,344.117,15.735z"
   id="path4"
   style="fill:#084dff;fill-opacity:1" />
</g>
</svg>
